# xmcd CD database file
# Copyright (C) 1993-1998 Ti Kan
# 
# Track frame offsets:
#     182
#     14200
#     26307
#     40397
#     54152
#     70215
#     85047
#     101130
#     115287
#     129312
#     142957
#     157305
#     174777
#     188495
#     204115
#     218085
#     230515
#     245185
#     260260
#     274092
# 
# Disc length: 3814 seconds
# 
# Revision: 1
# Processed by: cddbd v1.4b41PL1 Copyright (c) Steve Scherf et al.
# Submitted via: DiscPlay 4.0.4
# 
DISCID=140ee414
DTITLE=John Lee Hooker - Boogie Awhile
DYEAR=1900
DGENRE=
TTITLE0=Morning Blues
TTITLE1=Boogie Awhile
TTITLE2=Tuesday Evening
TTITLE3=Miss Pearl Boogie
TTITLE4=Good Business
TTITLE5=Mercy Blues
TTITLE6=Boogie Woogie
TTITLE7=I Love To Boogie
TTITLE8=Highway Blues
TTITLE9=Miss Rosie Mae
TTITLE10=Wayne County Ramblin' Blues
TTITLE11=Leavin' Chicago
TTITLE12=Shake Your Boogie
TTITLE13=Poor Slim (Take 2)
TTITLE14=Must I Wait Till Your man Is Gone
TTITLE15=Cotton Pickin' Boogie
TTITLE16=Do The Boogie
TTITLE17=Christmas Time Blues
TTITLE18=Boogie Rambler
TTITLE19=No More Doggin'
EXTD=
EXTT0=
EXTT1=
EXTT2=
EXTT3=
EXTT4=
EXTT5=
EXTT6=
EXTT7=
EXTT8=
EXTT9=
EXTT10=
EXTT11=
EXTT12=
EXTT13=
EXTT14=
EXTT15=
EXTT16=
EXTT17=
EXTT18=
EXTT19=
PLAYORDER=
